<?xml version="1.0" encoding="UTF-8"?>
<svg xmlns="http://www.w3.org/2000/svg" width="40" height="40" viewBox="0 0 40 40" fill="none">
  <path d="M20 0C31.044 0 40 8.95599 40 20C40 31.044 31.044 40 20 40C8.95599 40 0 31.044 0 20C0 8.95599 8.95599 0 20 0ZM20 8.51562C16.8815 8.51562 16.49 8.52913 15.2656 8.58496C14.0431 8.64081 13.2081 8.83533 12.4775 9.11914C11.7113 9.40753 11.0168 9.85896 10.4434 10.4434C9.85895 11.0168 9.40656 11.7112 9.11816 12.4775C8.83439 13.2081 8.6405 14.0432 8.58496 15.2656C8.52882 16.49 8.51562 16.8815 8.51562 20C8.51562 23.1189 8.5285 23.5104 8.58496 24.7354C8.64052 25.9574 8.83535 26.7922 9.11914 27.5225C9.40753 28.2888 9.85925 28.9832 10.4434 29.5566C11.0171 30.1411 11.7109 30.5934 12.4775 30.8818C13.2078 31.1656 14.0434 31.3592 15.2656 31.415C16.4902 31.4709 16.8814 31.4844 20 31.4844C23.1189 31.4844 23.5107 31.4709 24.7354 31.415C25.9573 31.3592 26.7923 31.1656 27.5225 30.8818C29.0651 30.2852 30.2852 29.0651 30.8818 27.5225C31.1656 26.7919 31.3595 25.9568 31.415 24.7344C31.4712 23.51 31.4844 23.1185 31.4844 20C31.4844 16.8815 31.4709 16.49 31.415 15.2656C31.3592 14.0432 31.1659 13.2081 30.8818 12.4775C30.5938 11.7112 30.1407 11.0171 29.5566 10.4434C28.9829 9.85902 28.2887 9.40653 27.5225 9.11816C26.7919 8.83469 25.9568 8.6405 24.7344 8.58496C23.51 8.52883 23.1185 8.51562 20 8.51562ZM19.9014 10.6406C22.9816 10.6406 23.3468 10.6525 24.5635 10.708C25.6883 10.7592 26.2995 10.9476 26.7061 11.1055C27.207 11.2903 27.6602 11.5847 28.0322 11.9678C28.4154 12.3399 28.7106 12.794 28.8955 13.2949C29.0536 13.7014 29.2408 14.3123 29.292 15.4365C29.3475 16.653 29.3594 17.0182 29.3594 20.0986C29.3594 23.1789 29.3475 23.5441 29.292 24.7607C29.2405 25.8855 29.0534 26.4968 28.8955 26.9033C28.5074 27.9093 27.712 28.7047 26.7061 29.0928C26.2996 29.251 25.6882 29.4381 24.5635 29.4893C23.3473 29.5447 22.9824 29.5566 19.9014 29.5566C16.8207 29.5566 16.4557 29.5447 15.2393 29.4893C14.1151 29.4381 13.5041 29.2509 13.0977 29.0928C12.5964 28.9079 12.1427 28.6127 11.7705 28.2295C11.3875 27.8575 11.0934 27.4043 10.9082 26.9033C10.7503 26.4968 10.5619 25.8855 10.5107 24.7607C10.4553 23.5441 10.4434 23.1789 10.4434 20.0986C10.4434 17.0182 10.4553 16.653 10.5107 15.4365C10.562 14.3121 10.7503 13.7014 10.9082 13.2949C11.0934 12.7937 11.3883 12.3399 11.7715 11.9678C12.1433 11.5848 12.5966 11.2903 13.0977 11.1055C13.5038 10.9476 14.1147 10.7595 15.2393 10.708C16.4557 10.6525 16.8209 10.6406 19.9014 10.6406ZM19.9014 14.1738C16.6296 14.174 13.9777 16.8259 13.9775 20.0977C13.9775 23.3696 16.6295 26.0223 19.9014 26.0225C23.1731 26.0225 25.8262 23.3697 25.8262 20.0977C25.826 16.8258 23.173 14.1738 19.9014 14.1738ZM20 16.1572C22.1221 16.1572 23.8428 17.8779 23.8428 20C23.8426 22.1219 22.122 23.8418 20 23.8418C17.878 23.8418 16.1574 22.1219 16.1572 20C16.1572 17.8779 17.8779 16.1572 20 16.1572ZM26.0596 12.5557C25.2952 12.5559 24.6758 13.176 24.6758 13.9404C24.6759 14.7047 25.2953 15.324 26.0596 15.3242C26.8241 15.3242 27.4439 14.7049 27.4443 13.9404C27.4443 13.1758 26.8242 12.5557 26.0596 12.5557Z" fill="white"></path>
</svg>
