<?xml version="1.0" encoding="UTF-8"?>
<svg xmlns="http://www.w3.org/2000/svg" width="46" height="46" viewBox="0 0 46 46" fill="none">
  <path fill-rule="evenodd" clip-rule="evenodd" d="M11 22.5C11 15.6075 16.6075 10 23.5 10C30.3925 10 36 15.6075 36 22.5C36 29.3925 30.3925 35 23.5 35C16.6075 35 11 29.3925 11 22.5ZM13.6595 22.5004C13.6595 27.9265 18.0741 32.3406 23.4999 32.3406C28.9258 32.3406 33.3404 27.9265 33.3404 22.5004C33.3404 17.0743 28.9258 12.6602 23.4999 12.6602C18.0741 12.6602 13.6595 17.0743 13.6595 22.5004Z" fill="#FFC59E"></path>
  <path d="M30.0145 22.1141H24.397V15.3598C24.397 14.7914 23.9361 14.3306 23.3677 14.3306C22.7993 14.3306 22.3385 14.7914 22.3385 15.3598V23.1433C22.3385 23.7117 22.7993 24.1726 23.3677 24.1726H30.0145C30.5829 24.1726 31.0437 23.7117 31.0437 23.1433C31.0437 22.575 30.5829 22.1141 30.0145 22.1141Z" fill="#FFC59E"></path>
</svg>
