<?xml version="1.0" encoding="UTF-8"?>
<svg xmlns="http://www.w3.org/2000/svg" width="40" height="40" viewBox="0 0 40 40" fill="none">
  <path d="M20 0C31.0457 0 40 8.9543 40 20C40 31.0457 31.0457 40 20 40C8.9543 40 0 31.0457 0 20C0 8.9543 8.9543 0 20 0ZM18.5029 14.0029C17.108 13.9883 15.9273 14.0076 15.2588 14.3389C14.8143 14.559 14.4714 15.0495 14.6797 15.0781C14.9381 15.1131 15.5237 15.2378 15.834 15.665C16.2345 16.2162 16.2207 17.4541 16.2207 17.4541C16.2218 17.471 16.4484 20.8654 15.6826 21.2881C15.1557 21.5785 14.4327 20.9852 12.8809 18.2734C12.0911 16.8938 11.4936 15.3697 11.4854 15.3486C11.4854 15.3486 11.3695 15.0617 11.1631 14.9082C10.9166 14.7253 10.5737 14.665 10.5625 14.6631L6.84766 14.6875C6.84766 14.6875 6.28972 14.7031 6.08496 14.9482C5.90575 15.1628 6.06515 15.6031 6.07031 15.6172C6.07031 15.6172 8.97927 22.499 12.2725 25.9668C15.283 29.1364 18.7003 28.9387 18.7207 28.9375H20.2744C20.2744 28.9375 20.7447 28.8853 20.9844 28.624C21.2027 28.3866 21.1974 27.9426 21.1973 27.9336C21.1973 27.9336 21.1671 25.8244 22.1348 25.5137C23.0888 25.2078 24.3147 27.5518 25.6133 28.4531C26.5864 29.1291 27.3276 28.9889 27.3408 28.9863L30.8135 28.9375C30.842 28.9356 32.6226 28.8124 31.7686 27.3799C31.698 27.2617 31.2664 26.3118 29.1865 24.3594C27.0094 22.3158 27.3013 22.6461 29.9238 19.1113C31.521 16.9586 32.1594 15.644 31.96 15.0811C31.7697 14.5449 30.5947 14.6865 30.5947 14.6865L26.6855 14.7109C26.6855 14.7109 26.3956 14.6709 26.1807 14.8008C25.9735 14.9265 25.8396 15.2176 25.8359 15.2256C25.8359 15.2256 25.2168 16.8919 24.3916 18.3086C22.6509 21.2978 21.9544 21.4551 21.6699 21.2695C21.0085 20.8367 21.1738 19.5317 21.1738 18.6045C21.1738 15.7075 21.6077 14.4992 20.3271 14.1865C19.9024 14.0827 19.5894 14.014 18.5029 14.0029Z" fill="white"></path>
</svg>
