<?xml version="1.0" encoding="UTF-8"?>
<svg xmlns="http://www.w3.org/2000/svg" width="40" height="40" viewBox="0 0 40 40" fill="none">
  <path d="M20 0C31.044 0 40 8.95599 40 20C40 31.044 31.044 40 20 40C8.95599 40 0 31.044 0 20C0 8.95599 8.95599 0 20 0ZM20 11.25C20 11.25 12.1768 11.2499 10.2207 11.7646C9.17062 12.0527 8.30568 12.9178 8.01758 13.9883C7.50275 15.9442 7.50293 20 7.50293 20C7.50293 20 7.50275 24.0766 8.01758 26.0117C8.30599 27.0822 9.15017 27.9268 10.2207 28.2148C12.1973 28.7501 20 28.75 20 28.75C20.0252 28.75 27.8265 28.7493 29.7793 28.2354C30.8499 27.9473 31.694 27.1028 31.9824 26.0322C32.4957 24.0807 32.4971 20.0386 32.4971 20.0205C32.4971 20.0205 32.5177 15.9442 31.9824 13.9883C31.694 12.9177 30.8498 12.0732 29.7793 11.7852C27.8265 11.2508 20.0252 11.25 20 11.25ZM24.0146 20L17.5088 23.7471V16.2529L24.0146 20Z" fill="white"></path>
</svg>
